<?xml version="1.0" encoding="UTF-8" standalone="no"?>
<svg width="36px" height="36px" viewBox="0 0 36 36" version="1.1" xmlns="http://www.w3.org/2000/svg" xmlns:xlink="http://www.w3.org/1999/xlink">
    <!-- Generator: Sketch 50.2 (55047) - http://www.bohemiancoding.com/sketch -->
    <title>github-logo</title>
    <desc>Created with Sketch.</desc>
    <defs></defs>
    <g id="Page-1" stroke="none" stroke-width="1" fill="none" fill-rule="evenodd">
        <g id="e/learn-kickstart-marketing-skills_xl" transform="translate(-175.000000, -3652.000000)" fill="#FFFFFF" fill-rule="nonzero">
            <g id="Group-3" transform="translate(135.000000, 3612.000000)">
                <g id="github-logo" transform="translate(40.000000, 40.000000)">
                    <path d="M33.5506879,9.19493706 C31.9427426,6.37569231 29.7616674,4.14369231 27.0068884,2.49843357 C24.2516993,0.853090909 21.2438542,0.0306293706 17.981221,0.0306293706 C14.7189977,0.0306293706 11.7101686,0.853342657 8.95555353,2.49843357 C6.20052847,4.14360839 4.01953531,6.37569231 2.41158998,9.19493706 C0.803890661,12.0140979 0,15.0926434 0,18.4304895 C0,22.44 1.14314351,26.0454545 3.43000456,29.2477762 C5.71661959,32.4503497 8.6705877,34.6664056 12.2916629,35.8961958 C12.7131663,35.9762517 13.0251936,35.9199441 13.2280729,35.7286993 C13.4310342,35.5372028 13.5323918,35.2973706 13.5323918,35.0102098 C13.5323918,34.9622937 13.5283736,34.5312168 13.5205831,33.7164755 C13.5125467,32.9017343 13.5087745,32.190965 13.5087745,31.5845035 L12.9702506,31.6798322 C12.6268975,31.7441958 12.1937494,31.7714685 11.6708064,31.7637483 C11.1481093,31.7562797 10.6054852,31.7002238 10.043672,31.596 C9.48161276,31.4926993 8.95883371,31.2531189 8.47492483,30.8777622 C7.99126196,30.5024056 7.64790888,30.0110769 7.44494761,29.4045315 L7.2108246,28.8532028 C7.05476993,28.4861538 6.80908428,28.0784056 6.47343964,27.6314685 C6.13779499,27.1841119 5.79837813,26.8808392 5.45502506,26.7211469 L5.29109795,26.6010629 C5.18186788,26.5212587 5.08051025,26.425007 4.98677904,26.3133147 C4.89312984,26.2016224 4.82301595,26.0898462 4.77619134,25.9779021 C4.72928474,25.8658741 4.7681549,25.773986 4.89321185,25.7019021 C5.01826879,25.6298182 5.24427335,25.5948252 5.57220957,25.5948252 L6.04029157,25.6664056 C6.35248292,25.7304336 6.73864237,25.9216783 7.19926196,26.2413147 C7.65963554,26.5606993 8.03808656,26.9759161 8.33469704,27.4867972 C8.69387699,28.1418462 9.12661503,28.640979 9.63414123,28.9844476 C10.1412574,29.3279161 10.6525558,29.4993566 11.1675444,29.4993566 C11.682533,29.4993566 12.1273257,29.4594126 12.5020866,29.3799441 C12.8764374,29.3000559 13.2276629,29.179972 13.5555991,29.0203636 C13.6960729,27.9497622 14.0785421,27.1273007 14.7026788,26.5523916 C13.8130934,26.4567273 13.013303,26.3126434 12.3028975,26.1210629 C11.5929021,25.9292308 10.8592073,25.6179021 10.1023052,25.1862378 C9.34499317,24.7551608 8.71675626,24.2198601 8.21743052,23.5812587 C7.71802278,22.9423217 7.30816401,22.1034965 6.98842825,21.0655385 C6.66852847,20.0271608 6.50853759,18.8293427 6.50853759,17.4717483 C6.50853759,15.5387413 7.12521185,13.8938182 8.35831435,12.5360559 C7.78067426,11.0827972 7.83520729,9.45365035 8.52207745,7.64878322 C8.9747426,7.50486713 9.64603189,7.61286713 10.5356173,7.97211189 C11.4253667,8.33152448 12.0768109,8.63941259 12.4906059,8.89468531 C12.9044009,9.14987413 13.2359453,9.36612587 13.4857312,9.54151049 C14.9376219,9.12637762 16.4359271,8.91876923 17.9810569,8.91876923 C19.5261868,8.91876923 21.02482,9.12637762 22.4767927,9.54151049 L23.3664601,8.96676923 C23.9748519,8.58327273 24.6932938,8.23183217 25.5200638,7.91236364 C26.3473257,7.59306294 26.9799089,7.50511888 27.4171572,7.64903497 C28.1192802,9.45398601 28.1818497,11.083049 27.6040456,12.5363077 C28.8370661,13.8940699 29.4539863,15.5394126 29.4539863,17.472 C29.4539863,18.8295944 29.2934214,20.0311888 28.9740137,21.0775385 C28.6541959,22.1240559 28.2408109,22.962042 27.7336948,23.5932587 C27.2260046,24.2243916 26.5937494,24.7554965 25.8368474,25.1864895 C25.0797813,25.6178182 24.3458405,25.9291469 23.6358451,26.120979 C22.9255216,26.3128112 22.1257312,26.456979 21.2361458,26.5528112 C22.0474989,27.2713007 22.4532574,28.4054266 22.4532574,29.9546853 L22.4532574,35.0095385 C22.4532574,35.2966993 22.5508428,35.5364476 22.7461777,35.728028 C22.9412665,35.9192727 23.2493576,35.9755804 23.670861,35.8954406 C27.2924282,34.6658182 30.2463964,32.4496783 32.5329294,29.2471049 C34.8192164,26.0447832 35.9627699,22.4393287 35.9627699,18.4298182 C35.9619499,15.0923916 35.1576492,12.0140979 33.5506879,9.19493706 Z" id="Shape"></path>
                </g>
            </g>
        </g>
    </g>
</svg>