<?xml version="1.0" encoding="UTF-8" standalone="no"?>
<svg width="34px" height="34px" viewBox="0 0 34 34" version="1.1" xmlns="http://www.w3.org/2000/svg" xmlns:xlink="http://www.w3.org/1999/xlink">
    <!-- Generator: Sketch 50.2 (55047) - http://www.bohemiancoding.com/sketch -->
    <title>linkedin-logo</title>
    <desc>Created with Sketch.</desc>
    <defs></defs>
    <g id="Page-1" stroke="none" stroke-width="1" fill="none" fill-rule="evenodd">
        <g id="e/learn-kickstart-marketing-skills_xl" transform="translate(-975.000000, -3652.000000)" fill="#FFFFFF" fill-rule="nonzero">
            <g id="Group-5" transform="translate(935.000000, 3612.000000)">
                <g id="linkedin-logo" transform="translate(40.000000, 40.000000)">
                    <path d="M31.4247564,0 L2.50716473,0 C1.12247332,0 0.000157772622,1.08807889 0.000157772622,2.43103944 L0.000157772622,31.4983573 C0.000157772622,32.8413968 1.12286775,33.9304223 2.50716473,33.9304223 L31.4247564,33.9304223 C32.8091323,33.9304223 33.9301856,32.8406868 33.9301856,31.4983573 L33.9301856,2.43103944 C33.9301856,1.08847332 32.8091323,0 31.4247564,0 Z M10.2867749,28.4020696 L5.16019026,28.4020696 L5.16019026,13.0829002 L10.2867749,13.0829002 L10.2867749,28.4020696 Z M7.72399536,10.9900464 L7.68952204,10.9900464 C5.97035267,10.9900464 4.85592575,9.81432483 4.85592575,8.34238515 C4.85592575,6.84078422 6.00309049,5.69693271 7.75633875,5.69693271 C9.50974478,5.69693271 10.5882784,6.84046868 10.6223573,8.34238515 C10.6223573,9.81464037 9.51013921,10.9900464 7.72399536,10.9900464 Z M28.7666032,28.4020696 L23.6416752,28.4020696 L23.6416752,20.2057819 C23.6416752,18.146297 22.8991183,16.7410162 21.0457633,16.7410162 C19.6279397,16.7410162 18.7863016,17.6890719 18.4167193,18.6043898 C18.2797726,18.9312947 18.2458515,19.3885197 18.2458515,19.8451137 L18.2458515,28.4017541 L13.1218701,28.4017541 C13.1218701,28.4017541 13.1889234,14.51942 13.1218701,13.0826636 L18.2466404,13.0826636 L18.2466404,15.2544826 C18.9269559,14.2108956 20.1426729,12.722232 22.8641717,12.722232 C26.2373503,12.722232 28.7666032,14.9104594 28.7666032,19.618 L28.7666032,28.4020696 Z M18.2135081,15.3161193 C18.2246081,15.2979193 18.2401081,15.2760193 18.2555081,15.2547193 L18.2555081,15.3161193 L18.2135081,15.3161193 Z" id="LinkedIn__x28_alt_x29_"></path>
                </g>
            </g>
        </g>
    </g>
</svg>