<?xml version="1.0" encoding="UTF-8" standalone="no"?>
<svg width="39px" height="37px" viewBox="0 0 39 37" version="1.1" xmlns="http://www.w3.org/2000/svg" xmlns:xlink="http://www.w3.org/1999/xlink">
    <!-- Generator: Sketch 50.2 (55047) - http://www.bohemiancoding.com/sketch -->
    <title>twitter-logo</title>
    <desc>Created with Sketch.</desc>
    <defs></defs>
    <g id="Page-1" stroke="none" stroke-width="1" fill="none" fill-rule="evenodd">
        <g id="e/learn-kickstart-marketing-skills_xl" transform="translate(-575.000000, -3652.000000)" fill="#FFFFFF" fill-rule="nonzero">
            <g id="Group-4" transform="translate(535.000000, 3612.000000)">
                <g id="twitter-logo" transform="translate(40.000000, 40.000000)">
                    <path d="M39,4.40270281 C37.5645833,5.14426305 36.024402,5.64718072 34.4061569,5.87170683 C36.0584951,4.71809438 37.3233186,2.88830321 37.9227843,0.714664659 C36.3728529,1.78298394 34.6620147,2.55872088 32.8390833,2.97924297 C31.3793235,1.16364257 29.3029559,0.0327650607 26.9999167,0.0327650607 C22.5815735,0.0327650607 18.9991176,4.20953012 18.9991176,9.35802811 C18.9991176,10.0882209 19.0697892,10.8013996 19.2062892,11.4833735 C12.5580637,11.0940562 6.66288235,7.38045984 2.71731863,1.73751406 C2.02761765,3.11275502 1.6352598,4.71519679 1.6352598,6.42574096 C1.6352598,9.66205221 3.0487549,12.5175904 5.19337255,14.1882369 C3.88222059,14.1371205 2.64906863,13.7165984 1.5694951,13.0176104 L1.5694951,13.1341084 C1.5694951,17.6518233 4.32823529,21.422257 7.98620588,22.2803896 C7.3160049,22.4906506 6.60928922,22.6071486 5.87816667,22.6071486 C5.36154412,22.6071486 4.86193627,22.547488 4.37207843,22.4338133 C5.39073039,26.1417631 8.34447059,28.8381566 11.8440833,28.9120823 C9.10726471,31.4124799 5.65640196,32.898498 1.9082598,32.898498 C1.26246569,32.898498 0.626357843,32.8530281 6.37254902e-05,32.7706325 C3.54109804,35.4216305 7.7450049,36.9673092 12.2632696,36.9673092 C26.9805441,36.9673092 35.02525,22.7549257 35.02525,10.429245 L34.9984216,9.22169277 C36.5702745,7.91458233 37.9301127,6.27231727 39,4.40270281 Z" id="Shape"></path>
                </g>
            </g>
        </g>
    </g>
</svg>