<svg width="36" height="36" xmlns="http://www.w3.org/2000/svg"><path d="M33.55 9.195c-1.607-2.82-3.788-5.051-6.543-6.697C24.252.853 21.244.031 17.98.031c-3.262 0-6.27.822-9.025 2.467C6.2 4.144 4.02 6.376 2.412 9.195.804 12.015 0 15.093 0 18.43c0 4.01 1.143 7.615 3.43 10.818 2.287 3.202 5.24 5.418 8.862 6.648.421.08.733.024.936-.167a.947.947 0 0 0 .304-.719l-.011-1.294c-.008-.814-.012-1.525-.012-2.131l-.539.095c-.343.064-.776.091-1.3.084a9.682 9.682 0 0 1-1.626-.168 3.596 3.596 0 0 1-1.57-.718 3.039 3.039 0 0 1-1.03-1.473l-.233-.552c-.156-.367-.402-.775-.738-1.222-.335-.447-.675-.75-1.018-.91l-.164-.12c-.11-.08-.21-.176-.304-.288a1.319 1.319 0 0 1-.21-.335c-.048-.112-.009-.204.116-.276.125-.072.351-.107.68-.107l.467.071c.312.064.699.256 1.16.575.46.32.838.735 1.135 1.246.359.655.792 1.154 1.3 1.497.506.344 1.018.515 1.533.515.515 0 .96-.04 1.334-.12a4.533 4.533 0 0 0 1.054-.359c.14-1.07.523-1.893 1.147-2.468a15.7 15.7 0 0 1-2.4-.43 9.435 9.435 0 0 1-2.2-.936 6.34 6.34 0 0 1-1.886-1.605c-.499-.639-.909-1.478-1.229-2.515-.32-1.039-.48-2.237-.48-3.594 0-1.933.617-3.578 1.85-4.936-.577-1.453-.523-3.082.164-4.887.453-.144 1.124-.036 2.014.323.89.36 1.54.667 1.955.923.413.255.745.471.995.647a16.27 16.27 0 0 1 4.495-.623c1.545 0 3.044.207 4.496.623l.89-.575a12.478 12.478 0 0 1 2.153-1.055c.827-.319 1.46-.407 1.897-.263.702 1.805.765 3.434.187 4.887 1.233 1.358 1.85 3.003 1.85 4.936 0 1.358-.16 2.56-.48 3.606-.32 1.046-.733 1.884-1.24 2.515a6.58 6.58 0 0 1-1.897 1.593 9.453 9.453 0 0 1-2.201.935c-.71.192-1.51.336-2.4.432.811.718 1.217 1.852 1.217 3.402v5.055c0 .287.098.526.293.718.195.191.503.248.925.167 3.621-1.23 6.575-3.445 8.862-6.648 2.286-3.202 3.43-6.808 3.43-10.817-.001-3.338-.805-6.416-2.412-9.235z" fill="#FFF"/></svg>