<svg width="34" height="34" xmlns="http://www.w3.org/2000/svg"><path d="M31.425 0H2.507C1.122 0 0 1.088 0 2.431v29.067c0 1.343 1.123 2.432 2.507 2.432h28.918c1.384 0 2.505-1.09 2.505-2.432V2.431C33.93 1.088 32.81 0 31.425 0zM10.287 28.402H5.16v-15.32h5.127v15.32zM7.724 10.99H7.69c-1.72 0-2.834-1.176-2.834-2.648 0-1.501 1.147-2.645 2.9-2.645 1.754 0 2.832 1.143 2.866 2.645 0 1.473-1.112 2.648-2.898 2.648zm21.043 17.412h-5.125v-8.196c0-2.06-.743-3.465-2.596-3.465-1.418 0-2.26.948-2.63 1.863-.136.327-.17.785-.17 1.241v8.557h-5.124s.067-13.883 0-15.32h5.125v2.172c.68-1.043 1.896-2.532 4.617-2.532 3.373 0 5.903 2.188 5.903 6.896v8.784zM18.214 15.316a.563.563 0 0 1 .042-.061v.061h-.042z" fill="#FFF"/></svg>