<svg width="39" height="37" xmlns="http://www.w3.org/2000/svg"><path d="M39 4.403a14.248 14.248 0 0 1-4.594 1.469c1.652-1.154 2.917-2.984 3.517-5.157a14.821 14.821 0 0 1-5.084 2.264C31.38 1.164 29.303.033 27 .033c-4.417 0-8 4.177-8 9.325 0 .73.07 1.443.207 2.125-6.648-.389-12.543-4.103-16.489-9.745-.69 1.375-1.082 2.977-1.082 4.688 0 3.236 1.414 6.092 3.558 7.762a7.159 7.159 0 0 1-3.624-1.17v.116c0 4.518 2.76 8.288 6.417 9.146-.67.21-1.377.327-2.108.327-.516 0-1.016-.06-1.506-.173 1.019 3.708 3.972 6.404 7.472 6.478-2.737 2.5-6.188 3.986-9.936 3.986-.646 0-1.282-.045-1.908-.127 3.541 2.65 7.745 4.196 12.263 4.196 14.718 0 22.762-14.212 22.762-26.538l-.027-1.207C36.57 7.915 37.93 6.272 39 4.402z" fill="#FFF"/></svg>