<svg width="81" height="28" xmlns="http://www.w3.org/2000/svg"><path d="M8.152 23.384c-4.64 0-7.552-3.2-7.552-8.576 0-5.344 2.976-8.544 7.552-8.544 3.936 0 7.136 2.432 7.136 7.68 0 .672-.032 1.568-.128 2.304H4.312c.128 2.4 1.888 3.84 3.84 3.84 1.44 0 2.592-.544 3.456-1.696l2.368 2.432c-1.28 1.536-3.2 2.56-5.824 2.56zm-3.808-10.24h7.232c-.16-2.496-1.728-3.584-3.424-3.584-2.016 0-3.616 1.024-3.808 3.584zM16.248 27.16L28.824.216h3.84L20.088 27.16h-3.84zM38.76 23V9.38l1.74-.82V23h-1.74zm9.08.24c-2.8 0-4.54-2.24-4.54-5.36 0-3.38 1.82-5.34 4.54-5.34 2.3 0 4.22 1.5 4.22 4.86 0 .32-.02.76-.06 1.16h-6.92c.14 1.88 1.26 3.1 2.8 3.1.78 0 1.56-.28 2.2-.92l1.06 1.18c-.76.76-1.92 1.32-3.3 1.32zm-2.78-6.16h5.24c-.02-2.32-1.38-3-2.46-3-1.48 0-2.68.9-2.78 3zM60.52 23v-.94c-.68.64-1.68 1.18-2.9 1.18-2.08 0-3.56-1.16-3.56-3.44 0-2.36 1.84-3.38 3.82-3.38.9 0 1.8.18 2.64.66v-.72c0-1.8-.9-2.3-2.22-2.3-1.14 0-2.22.48-2.98 1.02l-.5-1.46c.82-.54 2.16-1.08 3.7-1.08 1.6 0 3.64.54 3.64 3.68V23h-1.64zm-2.64-1.3c1.14 0 2.06-.66 2.64-1.34V18.6c-.62-.38-1.56-.68-2.4-.68-1.32 0-2.42.58-2.42 1.88 0 1.14.78 1.9 2.18 1.9zm7.3 1.3V12.78h1.74v1.34c.46-1.02 1.28-1.58 2.42-1.58.66 0 1.22.22 1.58.52l-.26 1.64c-.32-.22-.76-.44-1.46-.44-.98 0-2.28.66-2.28 2.98V23h-1.74zm14.08 0v-6.18c0-1.94-.94-2.68-2.2-2.68-1.34 0-2.36.66-2.36 2.64V23h-1.74V12.78h1.74v1.04c.64-.88 1.54-1.28 2.64-1.28 2.32 0 3.66 1.28 3.66 4.58V23h-1.74z" fill="#FFF" fill-rule="evenodd"/></svg>